<svg id="Capa_1" data-name="Capa 1" xmlns="http://www.w3.org/2000/svg" viewBox="0 0 550 550"><path d="M574.94,301q0,136.1.06,272.19c0,2.29-.52,2.81-2.81,2.81Q300,575.91,27.81,576c-2.29,0-2.81-.52-2.81-2.81Q25.09,301,25,28.81c0-2.29.52-2.81,2.81-2.81q272.19.09,544.38,0c2.29,0,2.81.52,2.81,2.81Q574.9,164.91,574.94,301ZM282.12,487.47c1.61-.15,3.25-.2,4.84-.47q42.42-7.15,84.82-14.36c16.84-2.86,29.74-20.27,27-36.92-4-24.18-8.17-48.32-12.36-72.47-.34-2-.16-2.8,2.11-3.17,22.47-3.73,44.9-7.7,67.37-11.39,14.78-2.43,24.63-10.72,27.76-23.83,1.58-6.65.18-13.14-.93-19.66-4.45-25.95-8.71-51.95-13.36-77.87-2.91-16.17-17.5-26.33-33.72-23.69-23.88,3.9-47.73,8-71.58,12.13-2.15.37-2.73,0-3.09-2.18-4-24-8.12-47.92-12.17-71.88a32.44,32.44,0,0,0-37.3-26.65c-23.47,4-46.94,7.86-70.38,11.94-6.9,1.2-14,1.7-20.61,4.12-15.83,5.78-25.61,21.28-23,36.36,4.09,24,8.12,47.93,12.3,71.87.39,2.23-.14,2.7-2.23,3.05Q174,248,140.49,253.83c-18.43,3.22-28.05,17.29-24.85,35.7,4.74,27.25,9.31,54.53,14,81.79,2.28,13.42,9.31,22.77,22.79,26.56,5.9,1.66,11.71.45,17.53-.55Q201,392,232.15,386.66c1.77-.31,2.74-.16,3.09,2,2.17,13.45,4.48,26.88,6.76,40.31,1.81,10.63,3.58,21.26,5.47,31.87C250.05,475.32,265.83,487.34,282.12,487.47Z" transform="translate(-25 -26)" style="fill:#f2f6f7"/><path d="M282.12,487.47c-16.29-.13-32.07-12.15-34.65-26.61-1.89-10.61-3.66-21.24-5.47-31.87-2.28-13.43-4.59-26.86-6.76-40.31-.35-2.18-1.32-2.33-3.09-2Q201,392,169.91,397.33c-5.82,1-11.63,2.21-17.53.55-13.48-3.79-20.51-13.14-22.79-26.56-4.64-27.26-9.21-54.54-14-81.79-3.2-18.41,6.42-32.48,24.85-35.7Q174,248,207.55,242.4c2.09-.35,2.62-.82,2.23-3.05-4.18-23.94-8.21-47.91-12.3-71.87-2.57-15.08,7.21-30.58,23-36.36,6.65-2.42,13.71-2.92,20.61-4.12,23.44-4.08,46.91-8,70.38-11.94a32.44,32.44,0,0,1,37.3,26.65c4.05,24,8.18,47.91,12.17,71.88.36,2.17.94,2.55,3.09,2.18,23.85-4.13,47.7-8.23,71.58-12.13,16.22-2.64,30.81,7.52,33.72,23.69,4.65,25.92,8.91,51.92,13.36,77.87,1.11,6.52,2.51,13,.93,19.66-3.13,13.11-13,21.4-27.76,23.83-22.47,3.69-44.9,7.66-67.37,11.39-2.27.37-2.45,1.16-2.11,3.17,4.19,24.15,8.39,48.29,12.36,72.47,2.74,16.65-10.16,34.06-27,36.92Q329.38,479.83,287,487C285.37,487.27,283.73,487.32,282.12,487.47Zm16.41-138.71A50.46,50.46,0,0,0,310,347.4c21.91-4.58,37.24-23.13,34.65-45.66-.74-6.35-3.84-8.86-10-7.68L328,295.29c-7.93,1.48-11.7-.24-15.74-7.15-.31-.52-.57-1.08-.93-1.57-3.62-5-8.39-7.66-14.63-7.09-7.64.71-12.93,5.9-14.39,13.91-1.33,7.23-3.94,10-11.1,11.48-2.58.53-5.22.81-7.82,1.26-6.56,1.15-8.59,4.26-7.05,10.8C260.91,336.31,277.2,348.8,298.53,348.76Zm27.15-99.44a23.43,23.43,0,0,0-1.38-9c-2.38-6.7-8.11-10.84-14.47-10.53a14.6,14.6,0,0,0-14,11.94,29.39,29.39,0,0,0,6.65,26.46c5.32,6.21,12.33,5.83,17.33-.66C324,262.19,325.56,256,325.68,249.32Zm-38.62,12c0-8.61-2.67-16-7-20.24-4.16-4-9.07-5.33-14.61-3.66s-8.86,5.68-9.93,11.31c-2,10.35,5.46,24.46,15,28.78,5.39,2.43,10.39.87,13.38-4.21A25.23,25.23,0,0,0,287.06,261.3Zm44,10.19a22.41,22.41,0,0,0,1.16,7.82c2.89,8.38,9.8,10.76,17.09,5.67A24.61,24.61,0,0,0,360,267.86c1.09-7.22-2.43-13.33-8.83-15.58-6.62-2.33-13.21.24-16.91,6.66A24.24,24.24,0,0,0,331.09,271.49Zm-70.55,18.74c-.75-7.42-3.82-14.64-11.34-19.15-5-3-10.17-2.69-14.87.82a12.82,12.82,0,0,0-5.28,13.67c1.57,7.79,10.06,15.75,18.41,17.24C255.66,304.26,260.89,299.64,260.54,290.23Z" transform="translate(-25 -26)" style="fill:#b1c908"/><path d="M298.53,348.76c-21.33,0-37.62-12.45-42.19-31.83-1.54-6.54.49-9.65,7.05-10.8,2.6-.45,5.24-.73,7.82-1.26,7.16-1.48,9.77-4.25,11.1-11.48,1.46-8,6.75-13.2,14.39-13.91,6.24-.57,11,2.13,14.63,7.09.36.49.62,1.05.93,1.57,4,6.91,7.81,8.63,15.74,7.15l6.59-1.23c6.2-1.18,9.3,1.33,10,7.68,2.59,22.53-12.74,41.08-34.65,45.66A50.46,50.46,0,0,1,298.53,348.76Z" transform="translate(-25 -26)" style="fill:#fefefd"/><path d="M325.68,249.32c-.12,6.65-1.71,12.87-5.83,18.22-5,6.49-12,6.87-17.33.66a29.39,29.39,0,0,1-6.65-26.46,14.6,14.6,0,0,1,14-11.94c6.36-.31,12.09,3.83,14.47,10.53A23.43,23.43,0,0,1,325.68,249.32Z" transform="translate(-25 -26)" style="fill:#fdfdfc"/><path d="M287.06,261.3a25.23,25.23,0,0,1-3.14,12c-3,5.08-8,6.64-13.38,4.21-9.56-4.32-17-18.43-15-28.78,1.07-5.63,4.33-9.61,9.93-11.31s10.45-.37,14.61,3.66C284.39,245.27,287.06,252.69,287.06,261.3Z" transform="translate(-25 -26)" style="fill:#fdfefc"/><path d="M331.09,271.49a24.24,24.24,0,0,1,3.14-12.55c3.7-6.42,10.29-9,16.91-6.66,6.4,2.25,9.92,8.36,8.83,15.58A24.61,24.61,0,0,1,349.34,285c-7.29,5.09-14.2,2.71-17.09-5.67A22.41,22.41,0,0,1,331.09,271.49Z" transform="translate(-25 -26)" style="fill:#fdfdfb"/><path d="M260.54,290.23c.35,9.41-4.88,14-13.08,12.58-8.35-1.49-16.84-9.45-18.41-17.24a12.82,12.82,0,0,1,5.28-13.67c4.7-3.51,9.87-3.83,14.87-.82C256.72,275.59,259.79,282.81,260.54,290.23Z" transform="translate(-25 -26)" style="fill:#fdfdfc"/></svg>